<svg width="572" height="752" viewBox="0 0 572 752" fill="none" xmlns="http://www.w3.org/2000/svg">
<rect y="736.817" width="559" height="15" rx="7.5" fill="#653C8F"/>
<rect x="98" y="1.81738" width="365" height="15" rx="7.5" fill="#653C8F"/>
<rect x="448" y="112" width="110" height="15" rx="7.5" transform="rotate(-90 448 112)" fill="#653C8F"/>
<rect x="448" y="420" width="212" height="15" rx="7.5" transform="rotate(-90 448 420)" fill="#653C8F"/>
<rect x="98" y="125.911" width="178.066" height="15" rx="7.5" transform="rotate(-45 98 125.911)" fill="#653C8F"/>
<rect x="384.365" y="372.76" width="139.612" height="15" rx="7.5" transform="rotate(-65 384.365 372.76)" fill="#653C8F"/>
<rect x="466.817" y="246.194" width="139.953" height="15" rx="7.5" transform="rotate(65 466.817 246.194)" fill="#653C8F"/>
<rect x="433" y="536.081" width="139.612" height="15" rx="7.5" transform="rotate(-85 433 536.081)" fill="#653C8F"/>
<rect x="465.943" y="396" width="139.953" height="15" rx="7.5" transform="rotate(85 465.943 396)" fill="#653C8F"/>
<rect x="98" y="744.817" width="743" height="15" rx="7.5" transform="rotate(-90 98 744.817)" fill="#653C8F"/>
<circle cx="497" cy="162" r="67.5" stroke="#653C8F" stroke-width="15"/>
</svg>